<svg width="18" height="18" viewBox="0 0 18 18" fill="none" xmlns="http://www.w3.org/2000/svg">
<mask id="path-1-inside-1_6300_71875" fill="white">
<path d="M5.28027 11.9492C5.52268 11.9492 5.71865 12.1757 5.71875 12.4551V16.4932C5.71875 16.7729 5.52298 17 5.28027 17H1.93848C1.82229 16.9999 1.71111 16.9465 1.62891 16.8516C1.54665 16.7565 1.50006 16.6276 1.5 16.4932V12.4551C1.5001 12.1758 1.69663 11.9493 1.93848 11.9492H5.28027ZM11.0186 9.40918C11.2611 9.40918 11.4568 9.63552 11.457 9.91504V16.4932C11.457 16.7729 11.2613 17 11.0186 17H7.0957C7.03821 17 6.98087 16.9873 6.92773 16.9619C6.8745 16.9365 6.82591 16.8986 6.78516 16.8516C6.74451 16.8046 6.71248 16.7488 6.69043 16.6875C6.66836 16.626 6.65628 16.5598 6.65625 16.4932V9.91504C6.65646 9.63552 6.8536 9.40918 7.0957 9.40918H11.0186ZM16.0615 13.9316C16.304 13.9316 16.501 14.1592 16.501 14.4395V16.4932C16.501 16.7729 16.3042 17 16.0615 17H12.6953C12.5791 16.9999 12.4679 16.9465 12.3857 16.8516C12.3035 16.7565 12.2569 16.6276 12.2568 16.4932V14.4395C12.2569 14.1593 12.4534 13.9318 12.6953 13.9316H16.0615ZM9.00098 1C9.0631 1.00003 9.12501 1.03058 9.16309 1.09082L10.2432 2.80664L10.2676 2.81348L12.1396 3.35059C12.2204 3.37417 12.2714 3.44382 12.2803 3.52148C12.2835 3.54818 12.2814 3.57568 12.2744 3.60156C12.2674 3.62737 12.2553 3.65193 12.2393 3.67285L11.0107 5.27637L11.0127 5.31738L11.1025 7.32812C11.1045 7.36571 11.0957 7.40367 11.0781 7.43652C11.0606 7.46921 11.0344 7.49582 11.0029 7.51367C10.9785 7.52819 10.9508 7.5368 10.9229 7.53906C10.895 7.54125 10.8669 7.53772 10.8408 7.52734L9.00098 6.80176L7.16113 7.52734C7.13489 7.53777 7.10611 7.54133 7.07812 7.53906C7.05027 7.53675 7.02331 7.52813 6.99902 7.51367C6.96731 7.49583 6.9405 7.46935 6.92285 7.43652C6.90522 7.4037 6.8975 7.36572 6.89941 7.32812L6.98828 5.31738L6.99023 5.27637L5.7627 3.67285C5.74241 3.64674 5.72854 3.6151 5.72266 3.58203C5.71683 3.54912 5.71867 3.51524 5.72852 3.4834C5.73843 3.4515 5.75604 3.42252 5.7793 3.39941C5.80265 3.37628 5.83122 3.35924 5.8623 3.35059L7.73438 2.81348L7.75879 2.80664L8.83887 1.09082C8.87796 1.03055 8.93932 1 9.00098 1Z"/>
</mask>
<path d="M5.71875 12.4551L6.71875 12.4551L6.71875 12.4547L5.71875 12.4551ZM1.93848 17L1.938 18H1.93848V17ZM1.62891 16.8516L0.872817 17.506L0.873005 17.5062L1.62891 16.8516ZM1.5 16.4932L0.5 16.4932L0.5 16.4936L1.5 16.4932ZM1.5 12.4551L0.5 12.4547V12.4551H1.5ZM1.93848 11.9492L1.93848 10.9492L1.938 10.9492L1.93848 11.9492ZM11.457 9.91504L12.457 9.91504L12.457 9.91431L11.457 9.91504ZM7.0957 17L7.0957 16L7.09507 16L7.0957 17ZM6.92773 16.9619L6.49643 17.8641L6.49722 17.8645L6.92773 16.9619ZM6.78516 16.8516L6.02905 17.506L6.02924 17.5062L6.78516 16.8516ZM6.69043 16.6875L5.74921 17.0253L5.7494 17.0258L6.69043 16.6875ZM6.65625 16.4932L5.65625 16.4932L5.65625 16.4936L6.65625 16.4932ZM6.65625 9.91504L5.65625 9.91431V9.91504H6.65625ZM12.6953 17L12.6948 18H12.6953V17ZM12.3857 16.8516L11.6297 17.506L11.6298 17.5062L12.3857 16.8516ZM12.2568 16.4932L11.2568 16.4932L11.2568 16.4936L12.2568 16.4932ZM12.2568 14.4395L11.2568 14.4393V14.4395H12.2568ZM12.6953 13.9316L12.6953 12.9316L12.6948 12.9316L12.6953 13.9316ZM9.00098 1L9.00146 1.90763e-10L9.00098 0L9.00098 1ZM9.16309 1.09082L10.0094 0.558096L10.0084 0.556512L9.16309 1.09082ZM10.2432 2.80664L9.39687 3.33936L9.60227 3.66565L9.97353 3.7696L10.2432 2.80664ZM10.2676 2.81348L10.5434 1.85224L10.5372 1.85051L10.2676 2.81348ZM12.1396 3.35059L12.4199 2.39065L12.4154 2.38937L12.1396 3.35059ZM12.2803 3.52148L11.2867 3.6349L11.2873 3.63983L12.2803 3.52148ZM12.2744 3.60156L13.2393 3.86423L13.2396 3.86325L12.2744 3.60156ZM12.2393 3.67285L11.4461 3.06384L11.4454 3.06468L12.2393 3.67285ZM11.0107 5.27637L10.2169 4.6682L9.99448 4.95856L10.0119 5.32393L11.0107 5.27637ZM11.0127 5.31738L12.0117 5.27275L12.0116 5.26982L11.0127 5.31738ZM11.1025 7.32812L10.1035 7.37276L10.1039 7.38119L11.1025 7.32812ZM11.0781 7.43652L11.9594 7.90922L11.9599 7.90824L11.0781 7.43652ZM11.0029 7.51367L10.51 6.64361L10.5006 6.64891L10.4914 6.65441L11.0029 7.51367ZM10.9229 7.53906L11.0012 8.53599L11.0035 8.5358L10.9229 7.53906ZM10.8408 7.52734L11.21 6.59799L11.2077 6.59707L10.8408 7.52734ZM9.00098 6.80176L9.36785 5.87149L9.00098 5.7268L8.6341 5.87149L9.00098 6.80176ZM7.16113 7.52734L6.79426 6.59707L6.79194 6.59799L7.16113 7.52734ZM7.07812 7.53906L6.9954 8.53564L6.99747 8.5358L7.07812 7.53906ZM6.99902 7.51367L7.51055 6.65441L7.50004 6.64815L7.48938 6.64215L6.99902 7.51367ZM6.92285 7.43652L6.04185 7.90964L6.04209 7.91009L6.92285 7.43652ZM6.89941 7.32812L7.89814 7.37907L7.89844 7.37228L6.89941 7.32812ZM6.98828 5.31738L5.98941 5.26982L5.98926 5.27323L6.98828 5.31738ZM6.99023 5.27637L7.9891 5.32393L8.00649 4.95878L7.78428 4.6685L6.99023 5.27637ZM5.7627 3.67285L6.55676 3.06497L6.55233 3.05928L5.7627 3.67285ZM5.72266 3.58203L4.73799 3.75648L4.73814 3.75733L5.72266 3.58203ZM5.72852 3.4834L4.77357 3.18662L4.77312 3.18808L5.72852 3.4834ZM5.7793 3.39941L5.07554 2.68897L5.07453 2.68998L5.7793 3.39941ZM5.8623 3.35059L6.13061 4.31395L6.13809 4.31181L5.8623 3.35059ZM7.73438 2.81348L7.46474 1.85049L7.45859 1.85226L7.73438 2.81348ZM7.75879 2.80664L8.02842 3.7696L8.39969 3.66565L8.60508 3.33936L7.75879 2.80664ZM8.83887 1.09082L7.99986 0.546527L7.99258 0.558096L8.83887 1.09082ZM5.28027 11.9492V12.9492C5.07503 12.9492 4.92002 12.8508 4.83455 12.7522C4.75099 12.6557 4.71878 12.5477 4.71875 12.4554L5.71875 12.4551L6.71875 12.4547C6.71851 11.7631 6.20503 10.9492 5.28027 10.9492V11.9492ZM5.71875 12.4551H4.71875V16.4932H5.71875H6.71875V12.4551H5.71875ZM5.71875 16.4932H4.71875C4.71875 16.4017 4.75056 16.2941 4.8339 16.1976C4.91923 16.0989 5.07447 16 5.28027 16V17V18C6.20732 18 6.71875 17.1831 6.71875 16.4932H5.71875ZM5.28027 17V16H1.93848V17V18H5.28027V17ZM1.93848 17L1.93895 16C2.13952 16.0001 2.29545 16.0937 2.38481 16.1969L1.62891 16.8516L0.873005 17.5062C1.12677 17.7992 1.50505 17.9998 1.938 18L1.93848 17ZM1.62891 16.8516L2.385 16.1971C2.47034 16.2957 2.49996 16.4033 2.5 16.4927L1.5 16.4932L0.5 16.4936C0.500167 16.8519 0.622957 17.2174 0.872817 17.506L1.62891 16.8516ZM1.5 16.4932H2.5V12.4551H1.5H0.5V16.4932H1.5ZM1.5 12.4551L2.5 12.4554C2.49997 12.5485 2.46736 12.6566 2.3841 12.7526C2.29919 12.8505 2.14463 12.9491 1.93895 12.9492L1.93848 11.9492L1.938 10.9492C1.01525 10.9497 0.500242 11.7619 0.5 12.4547L1.5 12.4551ZM1.93848 11.9492V12.9492H5.28027V11.9492V10.9492H1.93848V11.9492ZM11.0186 9.40918V10.4092C10.8137 10.4092 10.6585 10.311 10.5728 10.212C10.489 10.1153 10.4571 10.0073 10.457 9.91577L11.457 9.91504L12.457 9.91431C12.4565 9.22325 11.9438 8.40918 11.0186 8.40918V9.40918ZM11.457 9.91504H10.457V16.4932H11.457H12.457V9.91504H11.457ZM11.457 16.4932H10.457C10.457 16.4017 10.4888 16.2941 10.5722 16.1976C10.6575 16.0989 10.8128 16 11.0186 16V17V18C11.9456 18 12.457 17.1831 12.457 16.4932H11.457ZM11.0186 17V16H7.0957V17V18H11.0186V17ZM7.0957 17L7.09507 16C7.18649 15.9999 7.2765 16.0203 7.35825 16.0593L6.92773 16.9619L6.49722 17.8645C6.68525 17.9542 6.88993 18.0001 7.09633 18L7.0957 17ZM6.92773 16.9619L7.35904 16.0597C7.43946 16.0982 7.49902 16.1483 7.54107 16.1969L6.78516 16.8516L6.02924 17.5062C6.1528 17.6489 6.30954 17.7748 6.49643 17.8641L6.92773 16.9619ZM6.78516 16.8516L7.54126 16.1971C7.58665 16.2495 7.61477 16.3028 7.63146 16.3492L6.69043 16.6875L5.7494 17.0258C5.81019 17.1949 5.90237 17.3597 6.02905 17.506L6.78516 16.8516ZM6.69043 16.6875L7.63165 16.3497C7.64696 16.3924 7.65623 16.4401 7.65625 16.4927L6.65625 16.4932L5.65625 16.4936C5.65634 16.6794 5.68975 16.8596 5.74921 17.0253L6.69043 16.6875ZM6.65625 16.4932H7.65625V9.91504H6.65625H5.65625V16.4932H6.65625ZM6.65625 9.91504L7.65625 9.91577C7.65618 10.0093 7.6233 10.1175 7.53992 10.2134C7.45496 10.3111 7.3007 10.4092 7.0957 10.4092V9.40918V8.40918C6.17421 8.40918 5.65676 9.21944 5.65625 9.91431L6.65625 9.91504ZM7.0957 9.40918V10.4092H11.0186V9.40918V8.40918H7.0957V9.40918ZM16.0615 13.9316V14.9316C15.8552 14.9316 15.7005 14.8325 15.616 14.7349C15.5332 14.6392 15.501 14.5318 15.501 14.4395H16.501H17.501C17.501 13.7474 16.987 12.9316 16.0615 12.9316V13.9316ZM16.501 14.4395H15.501V16.4932H16.501H17.501V14.4395H16.501ZM16.501 16.4932H15.501C15.501 16.4003 15.5334 16.2925 15.6166 16.1965C15.7016 16.0985 15.8562 16 16.0615 16V17V18C16.9859 18 17.501 17.1862 17.501 16.4932H16.501ZM16.0615 17V16H12.6953V17V18H16.0615V17ZM12.6953 17L12.6959 16C12.8963 16.0001 13.0522 16.0937 13.1417 16.1969L12.3857 16.8516L11.6298 17.5062C11.8836 17.7993 12.2619 17.9998 12.6948 18L12.6953 17ZM12.3857 16.8516L13.1418 16.1971C13.2272 16.2957 13.2568 16.4033 13.2568 16.4927L12.2568 16.4932L11.2568 16.4936C11.257 16.8519 11.3798 17.2174 11.6297 17.506L12.3857 16.8516ZM12.2568 16.4932H13.2568V14.4395H12.2568H11.2568V16.4932H12.2568ZM12.2568 14.4395L13.2568 14.4396C13.2568 14.5315 13.2248 14.6385 13.1422 14.7341C13.058 14.8317 12.9032 14.9315 12.6959 14.9316L12.6953 13.9316L12.6948 12.9316C11.7686 12.9321 11.2569 13.7494 11.2568 14.4393L12.2568 14.4395ZM12.6953 13.9316V14.9316H16.0615V13.9316V12.9316H12.6953V13.9316ZM9.00098 1L9.0005 2C8.73094 1.99987 8.46876 1.86395 8.3178 1.62513L9.16309 1.09082L10.0084 0.556512C9.78126 0.197213 9.39526 0.000188733 9.00146 1.14706e-07L9.00098 1ZM9.16309 1.09082L8.3168 1.62354L9.39687 3.33936L10.2432 2.80664L11.0895 2.27392L10.0094 0.558096L9.16309 1.09082ZM10.2432 2.80664L9.97353 3.7696L9.99795 3.77644L10.2676 2.81348L10.5372 1.85051L10.5128 1.84368L10.2432 2.80664ZM10.2676 2.81348L9.9918 3.7747L11.8639 4.31181L12.1396 3.35059L12.4154 2.38937L10.5434 1.85226L10.2676 2.81348ZM12.1396 3.35059L11.8594 4.31051C11.5122 4.20914 11.3184 3.91252 11.2867 3.6349L12.2803 3.52148L13.2738 3.40807C13.2244 2.97512 12.9287 2.53921 12.4199 2.39067L12.1396 3.35059ZM12.2803 3.52148L11.2873 3.63983C11.2753 3.53914 11.2828 3.43762 11.3093 3.33987L12.2744 3.60156L13.2396 3.86325C13.2801 3.71374 13.2916 3.55722 13.2732 3.40313L12.2803 3.52148ZM12.2744 3.60156L11.3095 3.33889C11.3358 3.24253 11.3809 3.14881 11.4461 3.06384L12.2393 3.67285L13.0324 4.28187C13.1298 4.15505 13.199 4.0122 13.2393 3.86423L12.2744 3.60156ZM12.2393 3.67285L11.4454 3.06468L10.2169 4.6682L11.0107 5.27637L11.8046 5.88453L13.0331 4.28102L12.2393 3.67285ZM11.0107 5.27637L10.0119 5.32393L10.0138 5.36495L11.0127 5.31738L12.0116 5.26982L12.0096 5.2288L11.0107 5.27637ZM11.0127 5.31738L10.0137 5.36202L10.1035 7.37276L11.1025 7.32812L12.1015 7.28349L12.0117 5.27275L11.0127 5.31738ZM11.1025 7.32812L10.1039 7.38119C10.0959 7.23054 10.1307 7.08763 10.1964 6.96481L11.0781 7.43652L11.9599 7.90824C12.0607 7.71971 12.1131 7.50087 12.1011 7.27506L11.1025 7.32812ZM11.0781 7.43652L10.1969 6.96383C10.2685 6.83029 10.3769 6.71901 10.51 6.64361L11.0029 7.51367L11.4959 8.38373C11.692 8.27262 11.8527 8.10813 11.9594 7.90922L11.0781 7.43652ZM11.0029 7.51367L10.4914 6.65441C10.6021 6.5885 10.7225 6.55201 10.8422 6.54232L10.9229 7.53906L11.0035 8.5358C11.1792 8.52159 11.355 8.46789 11.5145 8.37294L11.0029 7.51367ZM10.9229 7.53906L10.8445 6.54214C10.952 6.53369 11.079 6.54594 11.21 6.59799L10.8408 7.52734L10.4716 8.45669C10.6549 8.5295 10.838 8.54882 11.0012 8.53599L10.9229 7.53906ZM10.8408 7.52734L11.2077 6.59707L9.36785 5.87149L9.00098 6.80176L8.6341 7.73203L10.4739 8.45761L10.8408 7.52734ZM9.00098 6.80176L8.6341 5.87149L6.79426 6.59707L7.16113 7.52734L7.52801 8.45761L9.36785 7.73203L9.00098 6.80176ZM7.16113 7.52734L6.79194 6.59799C6.92441 6.54537 7.05169 6.53365 7.15878 6.54232L7.07812 7.53906L6.99747 8.5358C7.16054 8.549 7.34538 8.53017 7.53033 8.45669L7.16113 7.52734ZM7.07812 7.53906L7.16085 6.54249C7.28509 6.5528 7.4047 6.59139 7.51055 6.65441L6.99902 7.51367L6.48749 8.37294C6.64192 8.46487 6.81545 8.5207 6.9954 8.53563L7.07812 7.53906ZM6.99902 7.51367L7.48938 6.64215C7.61501 6.71283 7.72729 6.82101 7.80361 6.96296L6.92285 7.43652L6.04209 7.91009C6.15371 8.11768 6.31961 8.27882 6.50867 8.3852L6.99902 7.51367ZM6.92285 7.43652L7.80385 6.9634C7.87968 7.1046 7.90469 7.25025 7.89812 7.37906L6.89941 7.32812L5.90071 7.27719C5.89031 7.48119 5.93077 7.70279 6.04185 7.90964L6.92285 7.43652ZM6.89941 7.32812L7.89844 7.37228L7.98731 5.36154L6.98828 5.31738L5.98926 5.27323L5.90039 7.28397L6.89941 7.32812ZM6.98828 5.31738L7.98715 5.36495L7.9891 5.32393L6.99023 5.27637L5.99137 5.2288L5.98941 5.26982L6.98828 5.31738ZM6.99023 5.27637L7.78428 4.6685L6.55674 3.06499L5.7627 3.67285L4.96865 4.28071L6.19619 5.88423L6.99023 5.27637ZM5.7627 3.67285L6.55233 3.05928C6.63474 3.16533 6.68553 3.28518 6.70717 3.40674L5.72266 3.58203L4.73814 3.75733C4.77156 3.94502 4.85008 4.12816 4.97306 4.28643L5.7627 3.67285ZM5.72266 3.58203L6.70732 3.40758C6.72825 3.52572 6.72273 3.65316 6.68391 3.77872L5.72852 3.4834L4.77312 3.18808C4.71462 3.37733 4.7054 3.57252 4.73799 3.75648L5.72266 3.58203ZM5.72852 3.4834L6.68346 3.78017C6.64517 3.9034 6.57723 4.0163 6.48407 4.10885L5.7793 3.39941L5.07453 2.68998C4.93486 2.82873 4.83169 2.9996 4.77357 3.18663L5.72852 3.4834ZM5.7793 3.39941L6.48305 4.10986C6.39226 4.19979 6.27319 4.27421 6.1306 4.31392L5.8623 3.35059L5.59401 2.38725C5.38926 2.44427 5.21303 2.55278 5.07554 2.68897L5.7793 3.39941ZM5.8623 3.35059L6.13809 4.31181L8.01016 3.7747L7.73438 2.81348L7.45859 1.85226L5.58652 2.38937L5.8623 3.35059ZM7.73438 2.81348L8.004 3.77644L8.02842 3.7696L7.75879 2.80664L7.48916 1.84368L7.46475 1.85051L7.73438 2.81348ZM7.75879 2.80664L8.60508 3.33936L9.68516 1.62354L8.83887 1.09082L7.99258 0.558096L6.9125 2.27392L7.75879 2.80664ZM8.83887 1.09082L9.6778 1.63506C9.53243 1.85914 9.27797 2 9.00098 2L9.00098 1L9.00098 0C8.60068 -1.59496e-07 8.2235 0.201967 7.99994 0.546578L8.83887 1.09082Z" fill="white" fill-opacity="0.8" mask="url(#path-1-inside-1_6300_71875)"/>
</svg>
