<svg width="28" height="28" fill="none" xmlns="http://www.w3.org/2000/svg"><path d="M28 14c0-7.732-6.268-14-14-14S0 6.268 0 14s6.268 14 14 14 14-6.268 14-14z" fill="#fff" fill-opacity=".6"/><mask id="prefix__a" maskUnits="userSpaceOnUse" x="4.838" y="5.375" width="18" height="16" fill="#000"><path fill="#fff" d="M4.838 5.375h18v16h-18z"/><path d="M11.888 7.48l.075.107h.001l2.79 3.987 3.528-4.03v.002l.075-.085.075-.086h2.41l-.362.415-.364.415-4.294 4.898 4.713 6.735.551.787H16.23l-.075-.107-.074-.107-2.967-4.219-3.734 4.263-.074.084-.075.086H6.838l.361-.414.363-.415v-.001l4.482-5.124-4.577-6.509-.277-.393-.279-.394h4.903l.074.105zm-.26.501l2.97 4.245.112.16v.002l.182.26.182.26.114.16-.042.047.042-.046.182.261 4.48 6.402-4.55-6.502-.112-.162-.182-.261-.183-.26-.113-.16.11-.127-.109.125-.184-.261-2.973-4.249h-.001l.075.106zm-2.766.432h-.318l.28.395 7.598 10.728.075.106h3.045l-.28-.395L11.633 8.52l-.074-.106h-.24l-.027-.038H8.836l.026.038zm4.294 6.972l-.088-.125.088.126.001-.001.128-.147-.129.147zm1.815-1.312l-.998 1.14-1.075-1.518.995-1.137 1.078 1.515z"/></mask><path d="M11.888 7.48l.075.107h.001l2.79 3.987 3.528-4.03v.002l.075-.085.075-.086h2.41l-.362.415-.364.415-4.294 4.898 4.713 6.735.551.787H16.23l-.075-.107-.074-.107-2.967-4.219-3.734 4.263-.074.084-.075.086H6.838l.361-.414.363-.415v-.001l4.482-5.124-4.577-6.509-.277-.393-.279-.394h4.903l.074.105zm-.26.501l2.97 4.245.112.16v.002l.182.26.182.26.114.16-.042.047.042-.046.182.261 4.48 6.402-4.55-6.502-.112-.162-.182-.261-.183-.26-.113-.16.11-.127-.109.125-.184-.261-2.973-4.249h-.001l.075.106zm-2.766.432h-.318l.28.395 7.598 10.728.075.106h3.045l-.28-.395L11.633 8.52l-.074-.106h-.24l-.027-.038H8.836l.026.038zm4.294 6.972l-.088-.125.088.126.001-.001.128-.147-.129.147zm1.815-1.312l-.998 1.14-1.075-1.518.995-1.137 1.078 1.515z" fill="#191F2B"/><path d="M11.888 7.48l-.501.353.5-.353zm.075.107l-.5.353.03.043.037.037.433-.433zm.001 0l.502-.35-.03-.044-.039-.038-.433.433zm2.79 3.987l-.502.351.448.64.515-.587-.46-.404zm3.528-4.03h.613V5.917L17.822 7.14l.46.404zm0 .002h-.612v1.632l1.074-1.23-.462-.402zm.075-.085l-.461-.403.46.403zm.075-.086v-.612h-.278l-.183.209.46.403zm2.41 0l.461.403.887-1.015h-1.348v.612zm-.362.415l.46.403h.001l-.461-.403zm-.364.415l.46.404h.001l-.46-.404zm-4.294 4.898l-.46-.404-.317.361.276.394.501-.351zm4.713 6.735l-.502.351.502-.351zm.551.787v.613h1.176l-.674-.964-.502.351zm-4.856 0l-.504.348.182.265h.322v-.613zm-.075-.107l.504-.349-.001-.002-.503.35zm-.074-.107h-.612v.193l.11.158.502-.35zm0 0h.613v-.195l-.112-.158-.5.352zm-2.967-4.219l.501-.352-.448-.637-.513.586.46.403zM9.38 20.455l-.433.433.463.463.43-.492-.46-.404zm0 0l.432-.434-.466-.466-.43.5.463.4zm-.074.084l.46.403.004-.003-.464-.4zm-.075.086v.613h.278l.183-.21-.461-.403zm-2.393 0l-.461-.403-.886 1.015h1.347v-.612zm.361-.414l-.461-.403.461.403zm.363-.415l.461.403.151-.173v-.23h-.612zm0-.001l-.461-.403-.152.173v.23h.613zm4.482-5.124l.461.403.317-.362-.277-.393-.5.352zM7.467 8.162l.501-.352-.501.352zM7.19 7.77l.5-.353v-.001l-.5.354zm-.279-.394v-.612H5.728l.683.966.5-.354zm4.903 0l.5-.352-.182-.26h-.318v.612zm-.186.606l.502-.35-.002-.003-.5.353zm2.97 4.245l.502-.35v-.002l-.502.352zm.111.162l-.433-.433-.363.363.294.421.502-.351zm.183.26L14.39 13l.502-.351zm.182.26l-.5.353.5-.353zm.072.207l-.457-.408.909.822-.452-.414zm.042-.046l.501-.351-.438-.626-.515.564.452.413zm.182.261l.502-.351-.502.351zm4.48 6.402l-.502.35 1.004-.702-.502.352zM15.3 13.23l-.503.35h.001l.502-.35zm-.111-.163l.433.434.363-.364-.295-.421-.501.351zm-.183-.26l.502-.352-.502.352zm-.183-.26l.502-.352-.002-.002-.5.354zm-.003-.287l.463.402-.923-.806.46.404zm-.109.125l-.5.352.448.638.513-.587-.46-.403zm-.184-.261l-.501.351v.002l.502-.353zm-2.973-4.249l.502-.351-.183-.261h-.32v.612zm-.001 0v-.612H10.37l.683.965.5-.353zm-2.69.538v.613h1.168l-.665-.962-.504.35zm-.319 0v-.612H7.36l.684.966.5-.354zm.28.395l-.5.354.5-.354zm7.598 10.728l-.5.354.001.002.5-.356zm.075.106l-.498.355.183.257h.315v-.612zm3.045 0v.612h1.187l-.688-.967-.499.355zm-.28-.395l.5-.355-.5.355zM11.633 8.52l-.5.352v.003l.5-.355zm-.074-.106l.5-.352-.182-.26h-.318v.612zm-.24 0l-.504.349.183.264h.32v-.613zm-.027-.038l.504-.349-.183-.263h-.32v.612zm-2.456 0v-.612H7.667l.666.96.503-.348zm4.32 7.01l-.5.352.447.636.513-.584-.46-.404zm-.088-.125l.502-.352-1.004.702.502-.35zm.088.126l-.502.35.418.6.518-.517-.434-.433zm.001-.001l.434.433.014-.015.014-.015-.462-.403zm.128-.147l.462.403-.921-.807.46.404zm1.686-1.165l.46.404.32-.364-.281-.395-.5.355zm-.998 1.14l-.5.354.449.634.512-.585-.461-.403zm-1.075-1.518l-.461-.403-.318.364.279.393.5-.354zm.995-1.137l.499-.355-.45-.632-.51.583.46.404zM11.888 7.48l-.5.354.075.106.5-.353.5-.353-.075-.107-.5.353zm.075.107l-.433.433v.001l.434-.433.433-.433v-.001l-.434.433zm.001 0l-.502.352 2.79 3.986.502-.35.502-.352-2.79-3.986-.502.35zm2.79 3.987l.46.404 3.53-4.03-.462-.403-.46-.404-3.529 4.03.461.403zm3.528-4.03h-.612v.002h1.225v-.001h-.613zm0 .002l.462.403.074-.085-.461-.403-.462-.403-.074.085.461.403zm.075-.085l.46.403.076-.086-.461-.403-.461-.403-.075.086.46.403zm.075-.086v.613h2.41V6.763h-2.41v.612zm2.41 0l-.461-.403-.363.415.462.403.461.403.362-.415-.461-.403zm-.362.415l-.461-.403-.363.415.46.403.461.403.364-.415-.461-.403zm-.364.415l-.46-.404-4.294 4.898.46.404.461.403 4.294-4.897-.46-.404zm-4.294 4.898l-.501.35 4.713 6.736.501-.351.502-.351-4.713-6.736-.502.352zm4.713 6.735l-.502.351.551.787.502-.351.502-.351-.55-.787-.503.35zm.551.787v-.613H16.23v1.226h4.856v-.613zm-4.856 0l.504-.348-.075-.108-.503.349-.504.348.074.107.504-.348zm-.075-.107l.503-.35-.074-.107-.503.35-.502.35.074.107.502-.35zm-.074-.107h.613-1.225.612zm0 0l.501-.353-2.967-4.218-.5.352-.502.353 2.967 4.218.501-.353zm-2.967-4.219l-.46-.403-3.735 4.263.461.403.46.404 3.735-4.263-.46-.404zM9.38 20.455l.433-.433v-.001l-.434.433-.433.433.001.001.433-.433zm0 0l-.465-.4-.073.084.464.4.464.4.073-.085-.464-.4zm-.074.084l-.461-.403-.075.086.46.403.462.403.075-.086-.461-.403zm-.075.086v-.613H6.838v1.226h2.393v-.613zm-2.393 0l.462.403.36-.414-.46-.403-.462-.403-.361.414.461.403zm.361-.414l.462.403.362-.415-.461-.403-.462-.403-.362.415.461.403zm.363-.415h.612v-.001H6.95h.613zm0-.001l.46.403 4.483-5.124-.46-.403-.462-.403-4.482 5.124.46.403zm4.482-5.124l.501-.352-4.577-6.51-.501.353-.501.352 4.577 6.51.501-.353zM7.467 8.162l.5-.353-.277-.393-.5.353-.501.352.277.394.501-.353zM7.19 7.77l.5-.354-.279-.394-.5.354-.5.354.279.393.5-.353zm-.279-.394v.613h4.903V6.763H6.91v.612zm4.903 0l-.501.353.074.105.5-.353.502-.352-.074-.105-.501.352zm-.186.606l-.502.352 2.97 4.244.502-.351.502-.352-2.97-4.244-.502.351zm2.97 4.245l-.503.35.113.161.502-.35.503-.35-.113-.162-.502.35zm.112.16l-.433-.432.432.434.433.433.001-.001-.433-.433zm0 .002l-.503.351.183.26.502-.35.502-.352-.183-.26-.502.35zm.182.26l-.501.353.182.26.501-.353.502-.352-.183-.26-.501.353zm.182.26l-.5.354.114.16.5-.354.5-.353-.114-.16-.5.353zm.114.16l-.457-.408-.041.047.456.408.456.409.042-.047-.456-.409zm-.042.047l.452.414.042-.046-.452-.414-.452-.413-.042.046.452.413zm.042-.046l-.502.352.183.26.501-.35.502-.352-.183-.261-.501.351zm.182.261l-.502.351 4.48 6.402.502-.351.502-.352-4.48-6.401-.502.351zm4.48 6.402l.502-.352-4.55-6.502-.502.351-.502.352 4.55 6.502.502-.351zM15.3 13.23l.502-.35-.112-.162-.502.35-.503.35.112.162.503-.35zm-.112-.162l.433.434V13.5l-.432-.433-.433-.433-.001.001.433.433zm0 0l.502-.352-.182-.26-.502.35-.502.352.183.26.502-.35zm-.182-.261l.501-.353-.182-.26-.502.353-.5.352.182.26.501-.352zm-.183-.26l.5-.354-.113-.16-.5.354-.5.353.113.16.5-.353zm-.113-.16l.462.402.11-.127-.462-.402-.462-.402-.11.127.462.402zm.11-.127l-.46-.404-.11.125.461.404.461.403.11-.125-.462-.403zm-.109.125l.5-.353-.183-.26-.5.352-.501.353.183.26.501-.352zm-.184-.261l.502-.351-2.973-4.25-.502.352-.502.351 2.974 4.25.502-.352zm-2.973-4.249v-.612h-.001v1.225-.613zm-.001 0l-.5.353.075.107.5-.354.5-.353-.075-.106-.5.353zm-2.69.538v-.612h-.319v1.225h.318v-.613zm-.319 0l-.5.354.28.395.5-.354.5-.354-.28-.395-.5.354zm.28.395l-.5.354 7.598 10.728.5-.354.5-.354L9.323 8.454l-.5.354zm7.598 10.728l-.499.356.075.105.5-.355.498-.356-.075-.105-.499.355zm.075.106v.612h3.045V19.03h-3.045v.613zm3.045 0l.5-.355-.28-.395-.5.355-.5.355.28.394.5-.354zm-.28-.395l.5-.355-7.63-10.728-.499.355-.5.355 7.63 10.728.499-.355zM11.633 8.52l.5-.353-.073-.105-.501.352-.501.353.074.105.501-.352zm-.074-.106v-.612h-.24v1.225h.24v-.613zm-.24 0l.503-.349-.026-.038-.504.349-.503.349.026.038.504-.349zm-.027-.038v-.612H8.836v1.225h2.456v-.613zm-2.456 0l-.503.349.026.038.503-.349.504-.349-.026-.038-.504.349zm4.32 7.01l.502-.352-.088-.125-.502.352-.5.352.087.125.501-.352zm-.088-.125l-.502.35.088.126.502-.35.503-.35-.088-.127-.502.35zm.088.126l.433.433.002-.001-.434-.433-.433-.433.432.434zm.001-.001l.462.403.128-.147-.462-.403-.461-.403-.128.147.461.403zm.128-.147l-.46-.404-.128.146.46.405.46.404.128-.146-.46-.405zm1.686-1.165l-.46-.403-.999 1.14.46.403.462.403.998-1.14-.461-.403zm-.998 1.14l.5-.354-1.076-1.518-.5.354-.5.354 1.076 1.518.5-.354zm-1.075-1.518l.46.404.996-1.138-.461-.403-.461-.404-.995 1.138.46.403zm.995-1.137l-.5.355 1.079 1.515.499-.355.499-.355-1.078-1.515-.5.355z" fill="#191F2B" mask="url(#prefix__a)"/></svg>